<?xml version="1.0" encoding="utf-8"?><!-- Uploaded to: SVG Repo, www.svgrepo.com, Generator: SVG Repo Mixer Tools -->
<svg width="50px" height="50px" viewBox="0 0 24 24" fill="none" xmlns="http://www.w3.org/2000/svg">
<path d="M2 20V4C2 3.44772 2.44772 3 3 3H8.44792C8.79153 3 9.11108 3.17641 9.29416 3.46719L10.5947 5.53281C10.7778 5.82359 11.0974 6 11.441 6H21C21.5523 6 22 6.44772 22 7V20C22 20.5523 21.5523 21 21 21H3C2.44772 21 2 20.5523 2 20Z" stroke="#87C540" stroke-width="2"/>
<rect x="14" y="7" width="2" height="2" fill="#87C540"/>
<rect x="16" y="9" width="2" height="2" fill="#87C540"/>
<rect x="14" y="11" width="2" height="2" fill="#87C540"/>
<rect x="16" y="13" width="2" height="2" fill="#87C540"/>
<rect x="14" y="15" width="2" height="2" fill="#87C540"/>
<rect x="16" y="17" width="2" height="2" fill="#87C540"/>
<rect x="14" y="17" width="2" height="2" fill="#87C540"/>
</svg>